<?xml version="1.0" encoding="utf-8"?>
<!-- Generator: Adobe Illustrator 26.2.1, SVG Export Plug-In . SVG Version: 6.00 Build 0)  -->
<svg version="1.1" id="Layer_1" xmlns="http://www.w3.org/2000/svg" xmlns:xlink="http://www.w3.org/1999/xlink" x="0px" y="0px"
	 viewBox="0 0 164.8 208.25" style="enable-background:new 0 0 164.8 208.25;" xml:space="preserve">
<style type="text/css">
	.st0{fill:url(#SVGID_1_);}
	.st1{fill:url(#SVGID_00000160189539526112224800000006062330845214848189_);}
	.st2{fill:url(#SVGID_00000011002813056766371630000010411862744459952568_);}
</style>
<g>
	<linearGradient id="SVGID_1_" gradientUnits="userSpaceOnUse" x1="0" y1="117.6467" x2="64.7464" y2="117.6467">
		<stop  offset="0" style="stop-color:#F15A29"/>
		<stop  offset="1" style="stop-color:#ED1C24"/>
	</linearGradient>
	<path class="st0" d="M64.75,177.15c-6.11,3.17-13.68,3.76-20.32,1.3c-11-4.07-17.75-15.42-16.08-27.03
		c1.7-11.8,11.2-20.47,23.56-21.36c1.56-0.11,3.12-0.17,4.7-0.22c3.77-0.1,6.77-3.2,6.71-6.97l-1.33-90.09
		c-0.06-3.77-3.66-6.56-7.28-5.52C42.48,30.8,34.32,41.19,34.2,54.42c-0.13,14.31,0.1,28.64,0.62,42.94
		c0.19,5.21-1.1,7.98-6.09,10.64C9.21,118.38-0.8,135.21,0.05,157.27c0.86,22.15,12.35,38.05,32.68,46.76
		c10.68,4.57,21.78,5.26,32.01,2.91V177.15z"/>
	
		<linearGradient id="SVGID_00000061455366104819869350000004789925057649966011_" gradientUnits="userSpaceOnUse" x1="66.5054" y1="104.6816" x2="96.2429" y2="104.6816">
		<stop  offset="0" style="stop-color:#F15A29"/>
		<stop  offset="1" style="stop-color:#ED1C24"/>
	</linearGradient>
	<path style="fill:url(#SVGID_00000061455366104819869350000004789925057649966011_);" d="M94.8,51.69
		c-0.01-0.66,0.02-1.32,0.06-1.97V17.45c0-0.22,0.01-0.43,0.04-0.64V4.06c0-0.29,0.03-0.56,0.06-0.82
		c-18.12,9.55-28.72,27.75-28.45,49.97c0.16,12.85,1.19,81.44,1.28,102.88c0,0.98-0.06,1.99-0.15,2.99v47.03
		c15.94-8.43,27.64-24.87,28.48-45.06c0.33-7.97-0.07-15.98-0.18-23.97C95.55,108.62,95.09,80.15,94.8,51.69z"/>
	
		<linearGradient id="SVGID_00000110446063266414479890000002030945789442904193_" gradientUnits="userSpaceOnUse" x1="97.0172" y1="90.6029" x2="164.8042" y2="90.6029">
		<stop  offset="0" style="stop-color:#F15A29"/>
		<stop  offset="1" style="stop-color:#ED1C24"/>
	</linearGradient>
	<path style="fill:url(#SVGID_00000110446063266414479890000002030945789442904193_);" d="M151.71,18.16
		C137.86,2.65,116.18-3.65,97.04,2.09V19.8c0,0.18-0.01,0.35-0.03,0.52c0,0.04,0.01,0.08,0.01,0.13v12.84
		c2.08-1.61,4.42-2.91,6.99-3.81c6.77-2.38,13.68-1.61,20.32,2.2c9.5,5.44,14.01,16.26,11.68,26.93
		c-2.29,10.51-10.55,18.08-21.5,19.38c-2.1,0.25-4.21,0.37-6.38,0.45c-3.79,0.15-6.78,3.3-6.73,7.1c0.45,30.08,0.9,59.88,1.35,89.93
		c0.06,3.77,3.66,6.56,7.28,5.52c12.38-3.56,20.6-14.31,20.58-27.82c-0.02-15.32-0.34-30.63-0.65-45.94
		c-0.06-2.82,0.7-4.34,3.5-5.62c12.05-5.53,20.94-14.24,26.6-26.47C168.61,56.7,165.45,33.57,151.71,18.16z"/>
</g>
</svg>
